# File created by Blade
# Date/Time:  Tue Jan 27 17:09:01 2015
#---------------------------------------------------------
:version 1.10
:name HOM
:units
  mass 1.0
  length 1.000000
  angle deg
:documentation
     Acclaim Skeleton File
:root
   axis xyz
   order TX TY TZ RX RY RZ
   position 0.000000 0.000000 0.000000
   orientation 0 0 0
:bonedata
   begin
      id 1
      name Spine_dum
      direction 0.000000 1.000000 0.000000
      length 7.539951
      axis 0.0 0.0 0.0 xyz
   end
   begin
      id 2
      name LeftUpLeg_dum
      direction 1.000000 0.000000 0.000000
      length 3.345476
      axis 0.0 0.0 0.0 xyz
   end
   begin
      id 3
      name RightUpLeg_dum
      direction -1.000000 0.000000 0.000000
      length 3.345476
      axis 0.0 0.0 0.0 xyz
   end
   begin
      id 4
      name Spine
      direction 0.000000 1.000000 0.000000
      length 0.000000
      axis 0.0 0.0 0.0 xyz
      dof rx ry rz
   end
   begin
      id 5
      name Spine_dum1
      direction 0.000000 1.000000 0.000000
      length 15.093809
      axis 0.0 0.0 0.0 xyz
   end
   begin
      id 6
      name Spine_dum2
      direction 0.000000 1.000000 0.000000
      length 9.738928
      axis 0.0 0.0 0.0 xyz
   end
   begin
      id 7
      name Spine_dum3
      direction 0.000000 1.000000 0.000000
      length 9.738928
      axis 0.0 0.0 0.0 xyz
   end
   begin
      id 8
      name Head
      direction 0.000000 1.000000 0.000000
      length 4.527550
      axis 0.0 0.0 0.0 xyz
      dof rx ry rz
   end
   begin
      id 9
      name LeftShoulder
      direction 1.000000 0.000000 0.000000
      length 7.084015
      axis 0.0 0.0 -90.0 xyz
      dof rx ry rz
   end
   begin
      id 10
      name LeftArm
      direction 1.000000 0.000000 0.000000
      length 10.259319
      axis 0.0 0.0 -90.0 xyz
      dof rx ry rz
   end
   begin
      id 11
      name LeftForeArm
      direction 1.000000 0.000000 0.000000
      length 9.896984
      axis 0.0 0.0 -90.0 xyz
      dof ry rz rx
   end
   begin
      id 12
      name LeftHand
      direction 0.000000 0.000000 0.000000
      length 0.000000
      axis 0.0 0.0 -90.0 xyz
      dof rx ry rz
   end
   begin
      id 13
      name LeftHand_dum1
      direction 0.000000 0.000000 0.000000
      length 0.000000
      axis 0.0 0.0 -90.0 xyz
   end
   begin
      id 14
      name LeftHand_dum2
      direction 1.000000 0.000000 0.000000
      length 3.937000
      axis 0.0 0.0 -90.0 xyz
   end
   begin
      id 15
      name LeftHandThumb1
      direction 0.000000 0.000000 1.000000
      length 3.937000
      axis 0.0 0.0 -90.0 xyz
      dof rx rz ry
   end
   begin
      id 16
      name RightShoulder
      direction -1.000000 0.000000 0.000000
      length 7.084015
      axis 0.0 0.0 90.0 xyz
      dof rx ry rz
   end
   begin
      id 17
      name RightArm
      direction -1.000000 0.000000 0.000000
      length 10.259319
      axis 0.0 0.0 90.0 xyz
      dof rx ry rz
   end
   begin
      id 18
      name RightForeArm
      direction -1.000000 0.000000 0.000000
      length 9.896984
      axis 0.0 0.0 90.0 xyz
      dof ry rz rx
   end
   begin
      id 19
      name RightHand
      direction 0.000000 0.000000 0.000000
      length 0.000000
      axis 0.0 0.0 90.0 xyz
      dof rx ry rz
   end
   begin
      id 20
      name RightHand_dum1
      direction 0.000000 0.000000 0.000000
      length 0.000000
      axis 0.0 0.0 90.0 xyz
   end
   begin
      id 21
      name RightHand_dum2
      direction -1.000000 0.000000 0.000000
      length 3.937000
      axis 0.0 0.0 90.0 xyz
   end
   begin
      id 22
      name RightHandThumb1
      direction 0.000000 0.000000 1.000000
      length 3.937000
      axis 0.0 0.0 90.0 xyz
      dof rx rz ry
   end
   begin
      id 23
      name LeftUpLeg
      direction 0.000000 -1.000000 0.000000
      length 19.114733
      axis 0.0 0.0 0.0 xyz
      dof rx ry rz
   end
   begin
      id 24
      name LeftLeg
      direction 0.000000 -1.000000 0.000000
      length 16.045604
      axis 0.0 0.0 0.0 xyz
      dof rx ry rz
   end
   begin
      id 25
      name LeftFoot
      direction 0.000000 -0.258819 0.965926
      length 5.543155
      axis 15.0 0.0 0.0 xyz
      dof rx ry rz
   end
   begin
      id 26
      name LeftToeBase
      direction 0.000000 0.000000 1.000000
      length 2.952750
      axis 0.0 0.0 0.0 xyz
      dof rx ry rz
   end
   begin
      id 27
      name RightUpLeg
      direction 0.000000 -1.000000 0.000000
      length 19.114733
      axis 0.0 0.0 0.0 xyz
      dof rx ry rz
   end
   begin
      id 28
      name RightLeg
      direction 0.000000 -1.000000 0.000000
      length 16.045604
      axis 0.0 0.0 0.0 xyz
      dof rx ry rz
   end
   begin
      id 29
      name RightFoot
      direction 0.000000 -0.258819 0.965926
      length 5.543155
      axis 15.0 0.0 0.0 xyz
      dof rx ry rz
   end
   begin
      id 30
      name RightToeBase
      direction 0.000000 0.000000 1.000000
      length 2.952750
      axis 0.0 0.0 0.0 xyz
      dof rx ry rz
   end
:hierarchy
   begin
      root Spine_dum LeftUpLeg_dum RightUpLeg_dum
      Spine_dum Spine
      LeftUpLeg_dum LeftUpLeg
      RightUpLeg_dum RightUpLeg
      Spine Spine_dum1 Spine_dum2 Spine_dum3
      Spine_dum1 Head
      Spine_dum2 LeftShoulder
      Spine_dum3 RightShoulder
      LeftShoulder LeftArm
      LeftArm LeftForeArm
      LeftForeArm LeftHand
      LeftHand LeftHand_dum1 LeftHand_dum2
      LeftHand_dum1 LeftHandThumb1
      RightShoulder RightArm
      RightArm RightForeArm
      RightForeArm RightHand
      RightHand RightHand_dum1 RightHand_dum2
      RightHand_dum1 RightHandThumb1
      LeftUpLeg LeftLeg
      LeftLeg LeftFoot
      LeftFoot LeftToeBase
      RightUpLeg RightLeg
      RightLeg RightFoot
      RightFoot RightToeBase
   end

# File created by Blade
# Date/Time:  Tue Jan 27 17:08:52 2015
# Frame Rate: 120.000 fps
#------------------------------------------------------
:FULLY-SPECIFIED
:DEGREES
810
root 5.904303 37.007784 -0.019451 -24.217386 43.492970 -21.033858
Spine 12.359764 -0.051907 19.566543
Head -1.468406 -9.393890 2.784474
LeftShoulder 0.649336 -7.848671 6.256285
LeftArm 9.352939 8.279846 -62.526119
LeftForeArm 11.711494 -0.000000 113.461491
LeftHand -10.427343 -0.000000 31.917423
LeftHandThumb1 -26.253704 0.000000 33.147579
RightShoulder -0.400357 -19.091904 -0.631443
RightArm 15.646305 -11.227950 59.097101
RightForeArm 191.536534 -0.000000 18.552022
RightHand 1.530759 -0.000000 4.416099
RightHandThumb1 -24.326973 -0.000000 -32.862282
LeftUpLeg -0.981273 1.753262 13.027544
LeftLeg 34.052082 -0.000000 -0.000000
LeftFoot -23.327318 -15.962573 -4.613312
LeftToeBase 13.448704 -0.000000 -0.000000
RightUpLeg -76.393187 -6.192723 12.055214
RightLeg 99.040384 -0.000000 -0.000000
RightFoot 23.916872 17.459473 12.308396
RightToeBase 1.062782 -0.000000 -0.000000
811
root 5.899947 37.014746 -0.029133 -24.092518 43.428285 -21.018624
Spine 12.289801 0.050646 19.532359
Head -1.533298 -9.338881 2.787117
LeftShoulder 0.709461 -7.890949 6.260313
LeftArm 9.286926 8.293077 -62.532550
LeftForeArm 11.831817 -0.000000 113.481742
LeftHand -10.510368 -0.000000 32.049786
LeftHandThumb1 -26.253704 0.000000 33.147579
RightShoulder -0.351837 -19.024139 -0.657409
RightArm 15.651375 -11.229867 59.063067
RightForeArm 191.597260 0.000000 18.576460
RightHand 1.494570 0.000000 4.418790
RightHandThumb1 -24.326973 -0.000000 -32.862282
LeftUpLeg -1.038091 1.778730 13.029019
LeftLeg 33.934899 -0.000000 -0.000000
LeftFoot -23.307206 -15.943517 -4.679396
LeftToeBase 13.575328 -0.000000 -0.000000
RightUpLeg -76.303887 -6.174213 11.882638
RightLeg 99.134680 -0.000000 -0.000000
RightFoot 23.520909 17.906251 12.352980
RightToeBase 0.804245 -0.000000 -0.000000
812
root 5.897112 37.020968 -0.039267 -23.969555 43.364010 -20.994242
Spine 12.231319 0.128986 19.504819
Head -1.604391 -9.293532 2.745296
LeftShoulder 0.746027 -7.889816 6.067658
LeftArm 9.432276 8.211301 -62.280250
LeftForeArm 11.877707 -0.000000 113.496362
LeftHand -10.758332 0.000000 32.222750
LeftHandThumb1 -26.253704 0.000000 33.147579
RightShoulder -0.301224 -18.990786 -0.709950
RightArm 15.714817 -11.169308 59.048386
RightForeArm 191.632629 -0.000000 18.575594
RightHand 1.467209 0.000000 4.393012
RightHandThumb1 -24.326973 -0.000000 -32.862282
LeftUpLeg -1.083659 1.801294 13.025983
LeftLeg 33.839762 -0.000000 -0.000000
LeftFoot -23.292875 -15.984022 -4.663945
LeftToeBase 13.600812 -0.000000 -0.000000
RightUpLeg -76.210617 -6.166039 11.717275
RightLeg 99.167524 -0.000000 -0.000000
RightFoot 22.888744 18.170386 12.124331
RightToeBase 0.510337 -0.000000 -0.000000
813
root 5.892389 37.026251 -0.051394 -23.851719 43.295304 -20.976320
Spine 12.186956 0.188948 19.471671
Head -1.721885 -9.204678 2.733901
LeftShoulder 0.767693 -7.910224 5.930759
LeftArm 9.530093 8.116923 -62.094341
LeftForeArm 11.892810 0.000000 113.528013
LeftHand -11.052047 -0.000000 32.373984
LeftHandThumb1 -26.253704 0.000000 33.147579
RightShoulder -0.241051 -18.975959 -0.758116
RightArm 15.800002 -11.032385 59.045061
RightForeArm 191.569066 -0.000000 18.573695
RightHand 1.451682 -0.000000 4.409301
RightHandThumb1 -24.326973 -0.000000 -32.862282
LeftUpLeg -1.142622 1.844513 13.032816
LeftLeg 33.734076 -0.000000 -0.000000
LeftFoot -23.265487 -16.093588 -5.019242
LeftToeBase 14.112299 -0.000000 -0.000000
RightUpLeg -76.122214 -6.188977 11.596595
RightLeg 99.099090 -0.000000 -0.000000
RightFoot 22.146706 18.003617 12.548457
RightToeBase 0.340831 -0.000000 -0.000000
814
root 5.887559 37.030341 -0.062596 -23.736043 43.218201 -20.954472
Spine 12.139850 0.260900 19.430444
Head -1.771499 -9.099051 2.707251
LeftShoulder 0.790969 -7.916477 5.914229
LeftArm 9.519232 8.042612 -62.070123
LeftForeArm 11.956149 -0.000000 113.545145
LeftHand -11.138013 -0.000000 32.411314
LeftHandThumb1 -26.253704 0.000000 33.147579
RightShoulder -0.202935 -18.970523 -0.787433
RightArm 15.899463 -11.007848 58.996608
RightForeArm 191.660640 -0.000000 18.566938
RightHand 1.458939 -0.000000 4.468007
RightHandThumb1 -24.326973 -0.000000 -32.862282
LeftUpLeg -1.200018 1.909531 13.049360
LeftLeg 33.656242 -0.000000 -0.000000
LeftFoot -23.252961 -16.160669 -5.062859
LeftToeBase 14.211944 -0.000000 -0.000000
RightUpLeg -76.034461 -6.198935 11.484879
RightLeg 98.981814 -0.000000 -0.000000
RightFoot 21.269053 17.719320 12.644664
RightToeBase -0.074854 -0.000000 0.000000
815
root 5.882442 37.033954 -0.075114 -23.617130 43.136089 -20.928188
Spine 12.099961 0.322913 19.383457
Head -1.823491 -9.038675 2.682066
LeftShoulder 0.786757 -7.933863 5.935610
LeftArm 9.474416 7.994886 -62.099188
LeftForeArm 12.086356 -0.000000 113.547579
LeftHand -11.183881 -0.000000 32.461204
LeftHandThumb1 -26.253704 0.000000 33.147579
RightShoulder -0.138691 -18.990168 -0.813485
RightArm 15.991382 -10.950162 58.933823
RightForeArm 191.626366 -0.000000 18.602008
RightHand 1.394005 -0.000000 4.511364
RightHandThumb1 -24.326973 -0.000000 -32.862282
LeftUpLeg -1.258546 1.982048 13.064371
LeftLeg 33.580025 -0.000000 -0.000000
LeftFoot -23.218680 -16.254183 -5.185300
LeftToeBase 14.359652 -0.000000 -0.000000
RightUpLeg -75.965240 -6.233657 11.408486
RightLeg 98.801662 -0.000000 -0.000000
RightFoot 20.383759 17.247552 12.669866
RightToeBase -0.504503 -0.000000 0.000000
816
root 5.876291 37.035774 -0.087693 -23.487339 43.043390 -20.886312
Spine 12.070704 0.407112 19.327781
Head -1.896196 -8.951484 2.679367
LeftShoulder 0.772970 -7.960273 5.958201
LeftArm 9.444548 7.943215 -62.124320
LeftForeArm 12.184048 0.000000 113.552361
LeftHand -11.302963 0.000000 32.542168
LeftHandThumb1 -26.253704 0.000000 33.147579
RightShoulder -0.106553 -18.947314 -0.834511
RightArm 16.049328 -10.906662 58.889271
RightForeArm 191.550740 0.000000 18.633736
RightHand 1.396940 -0.000000 4.625497
RightHandThumb1 -24.326973 -0.000000 -32.862282
LeftUpLeg -1.317307 2.074686 13.072565
LeftLeg 33.509382 -0.000000 -0.000000
LeftFoot -23.220078 -16.323831 -5.221236
LeftToeBase 14.518361 -0.000000 -0.000000
RightUpLeg -75.902499 -6.248490 11.328082
RightLeg 98.553042 -0.000000 -0.000000
RightFoot 19.174870 16.829939 12.266870
RightToeBase 0.040148 -0.000000 -0.000000
817
root 5.869997 37.036209 -0.102265 -23.349156 42.950016 -20.833460
Spine 12.045538 0.485232 19.264850
Head -1.966255 -8.842397 2.652764
LeftShoulder 0.728967 -7.956885 5.967488
LeftArm 9.474407 7.891664 -62.119113
LeftForeArm 12.273331 -0.000000 113.539366
LeftHand -11.375753 0.000000 32.615752
LeftHandThumb1 -26.253704 0.000000 33.147579
RightShoulder -0.074561 -18.903479 -0.851449
RightArm 16.093794 -10.813825 58.862804
RightForeArm 191.656303 -0.000000 18.647996
RightHand 1.382195 -0.000000 4.610345
RightHandThumb1 -24.326973 -0.000000 -32.862282
LeftUpLeg -1.382341 2.141238 13.065549
LeftLeg 33.452246 -0.000000 -0.000000
LeftFoot -23.209729 -16.381152 -5.279974
LeftToeBase 14.613265 -0.000000 -0.000000
RightUpLeg -75.850154 -6.260850 11.235440
RightLeg 98.245004 -0.000000 -0.000000
RightFoot 17.983458 16.277824 11.990956
RightToeBase 0.536426 -0.000000 -0.000000
818
root 5.863675 37.036147 -0.115444 -23.226018 42.853108 -20.796166
Spine 12.018903 0.555943 19.217142
Head -2.039002 -8.748736 2.635308
LeftShoulder 0.701551 -7.980496 5.965165
LeftArm 9.448891 7.795748 -62.101577
LeftForeArm 12.211024 0.000000 113.549629
LeftHand -11.302582 -0.000000 32.478050
LeftHandThumb1 -26.253704 0.000000 33.147579
RightShoulder -0.033844 -18.808199 -0.878527
RightArm 16.071370 -10.798661 58.830084
RightForeArm 191.729939 0.000000 18.688537
RightHand 1.302161 -0.000000 4.661232
RightHandThumb1 -24.326973 -0.000000 -32.862282
LeftUpLeg -1.440446 2.203487 13.065388
LeftLeg 33.394100 -0.000000 -0.000000
LeftFoot -23.232898 -16.388484 -5.301844
LeftToeBase 14.723060 -0.000000 -0.000000
RightUpLeg -75.800649 -6.288778 11.193385
RightLeg 97.892405 -0.000000 -0.000000
RightFoot 16.817378 15.605766 11.493585
RightToeBase 0.477546 -0.000000 -0.000000
819
root 5.857974 37.035621 -0.128402 -23.104339 42.754627 -20.755871
Spine 11.991361 0.617089 19.167325
Head -2.075093 -8.659637 2.611613
LeftShoulder 0.671058 -8.021119 5.961980
LeftArm 9.406273 7.706673 -62.087641
LeftForeArm 12.291231 0.000000 113.541462
LeftHand -11.408087 0.000000 32.408413
LeftHandThumb1 -26.253704 0.000000 33.147579
RightShoulder 0.010602 -18.760009 -0.905784
RightArm 16.080025 -10.729676 58.802552
RightForeArm 191.723758 -0.000000 18.751105
RightHand 1.285436 -0.000000 4.763198
RightHandThumb1 -24.326973 -0.000000 -32.862282
LeftUpLeg -1.482322 2.257553 13.061442
LeftLeg 33.313863 -0.000000 -0.000000
LeftFoot -23.243834 -16.404945 -5.341637
LeftToeBase 14.764157 -0.000000 -0.000000
RightUpLeg -75.755661 -6.306474 11.147204
RightLeg 97.507579 -0.000000 -0.000000
RightFoot 15.537346 14.844904 10.868436
RightToeBase 0.419778 -0.000000 -0.000000
820
root 5.851697 37.033659 -0.142979 -22.977224 42.644718 -20.702613
Spine 11.967851 0.708432 19.121196
Head -2.078548 -8.601638 2.550539
LeftShoulder 0.654703 -8.042191 5.929578
LeftArm 9.417626 7.620993 -62.016191
LeftForeArm 12.279045 -0.000000 113.529787
LeftHand -11.345497 -0.000000 32.466218
LeftHandThumb1 -26.253704 0.000000 33.147579
RightShoulder 0.054193 -18.738230 -0.940307
RightArm 16.105699 -10.623624 58.793591
RightForeArm 191.771047 -0.000000 18.769317
RightHand 1.284090 0.000000 4.852710
RightHandThumb1 -24.326973 -0.000000 -32.862282
LeftUpLeg -1.528422 2.288483 13.039401
LeftLeg 33.255265 -0.000000 -0.000000
LeftFoot -23.276226 -16.359171 -5.345675
LeftToeBase 14.784785 -0.000000 -0.000000
RightUpLeg -75.715340 -6.317150 11.094747
RightLeg 97.073465 -0.000000 -0.000000
RightFoot 14.237427 14.081158 10.219584
RightToeBase 0.564071 -0.000000 -0.000000
821
root 5.847138 37.030469 -0.156406 -22.867600 42.529886 -20.642457
Spine 11.974686 0.800518 19.071639
Head -2.091428 -8.527428 2.497784
LeftShoulder 0.618026 -8.035667 5.909479
LeftArm 9.473103 7.539994 -61.962418
LeftForeArm 12.246970 -0.000000 113.516191
LeftHand -11.369164 0.000000 32.446242
LeftHandThumb1 -26.253704 0.000000 33.147579
RightShoulder 0.082085 -18.705367 -0.973982
RightArm 16.126878 -10.523299 58.788037
RightForeArm 191.825129 -0.000000 18.790728
RightHand 1.361950 -0.000000 4.903874
RightHandThumb1 -24.326973 -0.000000 -32.862282
LeftUpLeg -1.545086 2.289500 13.004358
LeftLeg 33.189154 -0.000000 -0.000000
LeftFoot -23.316897 -16.338290 -5.459185
LeftToeBase 15.074396 -0.000000 -0.000000
RightUpLeg -75.649224 -6.312813 11.039058
RightLeg 96.643373 -0.000000 -0.000000
RightFoot 12.802150 13.192041 9.446698
RightToeBase 0.580951 -0.000000 -0.000000
822
root 5.841294 37.026163 -0.170537 -22.752266 42.399043 -20.570959
Spine 11.993683 0.912033 19.021192
Head -2.121901 -8.473794 2.436874
LeftShoulder 0.609417 -8.086789 5.900633
LeftArm 9.437697 7.447381 -61.933696
LeftForeArm 12.124817 0.000000 113.523710
LeftHand -11.356933 -0.000000 32.432539
LeftHandThumb1 -26.253704 0.000000 33.147579
RightShoulder 0.104353 -18.678244 -1.002029
RightArm 16.144757 -10.428429 58.777304
RightForeArm 191.936589 -0.000000 18.802325
RightHand 1.219672 -0.000000 4.856504
RightHandThumb1 -24.326973 -0.000000 -32.862282
LeftUpLeg -1.558018 2.297886 12.964408
LeftLeg 33.140723 -0.000000 -0.000000
LeftFoot -23.354698 -16.282428 -5.445279
LeftToeBase 14.962642 -0.000000 -0.000000
RightUpLeg -75.593434 -6.295396 10.983215
RightLeg 96.193810 -0.000000 -0.000000
RightFoot 11.349169 12.317789 8.757648
RightToeBase 0.990917 -0.000000 -0.000000
